<?xml version="1.0" encoding="UTF-8"?>
<svg width="256px" height="256px" viewBox="0 0 256 256" version="1.1" xmlns="http://www.w3.org/2000/svg" xmlns:xlink="http://www.w3.org/1999/xlink">
    <defs></defs>
    <g id="presto" fill-rule="evenodd">
        <path d="M0,18.0014229 C0,8.05951155 8.06656135,0 18.0014229,0 L237.998577,0 C247.940488,0 256,8.06656135 256,18.0014229 L256,237.998577 C256,247.940488 247.933439,256 237.998577,256 L18.0014229,256 C8.05951155,256 0,247.933439 0,237.998577 L0,18.0014229 Z M230.118,128.531 C230.118,135.578 224.405,141.291 217.357,141.291 C210.31,141.291 204.597,135.578 204.597,128.531 C204.597,121.483 210.31,115.77 217.357,115.77 C224.405,115.77 230.118,121.483 230.118,128.531 Z M203.806,154.531 C203.806,161.578 198.093,167.291 191.045,167.291 C183.997,167.291 178.284,161.578 178.284,154.531 C178.284,147.483 183.997,141.77 191.045,141.77 C198.093,141.77 203.806,147.483 203.806,154.531 Z M177.451,181.072 C177.451,188.12 171.738,193.833 164.691,193.833 C157.643,193.833 151.93,188.12 151.93,181.072 C151.93,174.025 157.643,168.312 164.691,168.312 C171.738,168.312 177.451,174.025 177.451,181.072 Z M202.993,102.336 C202.993,108.933 197.645,114.28 191.049,114.28 C184.452,114.28 179.104,108.933 179.104,102.336 C179.104,95.739 184.452,90.391 191.049,90.391 C197.645,90.391 202.993,95.739 202.993,102.336 Z M176.738,128.298 C176.738,134.895 171.39,140.243 164.794,140.243 C158.197,140.243 152.849,134.895 152.849,128.298 C152.849,121.701 158.197,116.353 164.794,116.353 C171.39,116.353 176.738,121.701 176.738,128.298 Z M150.569,154.642 C150.569,161.239 145.222,166.587 138.625,166.587 C132.028,166.587 126.68,161.239 126.68,154.642 C126.68,148.045 132.028,142.698 138.625,142.698 C145.222,142.698 150.569,148.045 150.569,154.642 Z M175.743,76.235 C175.743,82.226 170.886,87.084 164.894,87.084 C158.902,87.084 154.045,82.226 154.045,76.235 C154.045,70.243 158.902,65.386 164.894,65.386 C170.886,65.386 175.743,70.243 175.743,76.235 Z M149.522,102.191 C149.522,108.182 144.664,113.04 138.672,113.04 C132.681,113.04 127.823,108.182 127.823,102.191 C127.823,96.199 132.681,91.341 138.672,91.341 C144.664,91.341 149.522,96.199 149.522,102.191 Z M123.253,128.618 C123.253,134.61 118.396,139.467 112.404,139.467 C106.412,139.467 101.555,134.61 101.555,128.618 C101.555,122.627 106.412,117.769 112.404,117.769 C118.396,117.769 123.253,122.627 123.253,128.618 Z M148.618,50.008 C148.618,55.394 144.252,59.76 138.866,59.76 C133.48,59.76 129.114,55.394 129.114,50.008 C129.114,44.621 133.48,40.255 138.866,40.255 C144.252,40.255 148.618,44.621 148.618,50.008 Z M122.297,76.089 C122.297,81.475 117.931,85.842 112.545,85.842 C107.159,85.842 102.793,81.475 102.793,76.089 C102.793,70.703 107.159,66.337 112.545,66.337 C117.931,66.337 122.297,70.703 122.297,76.089 Z M96.06,102.471 C96.06,107.857 91.693,112.223 86.307,112.223 C80.921,112.223 76.555,107.857 76.555,102.471 C76.555,97.085 80.921,92.718 86.307,92.718 C91.693,92.718 96.06,97.085 96.06,102.471 Z M95.06,154.721 C95.06,159.508 91.178,163.389 86.391,163.389 C81.603,163.389 77.722,159.508 77.722,154.721 C77.722,149.933 81.603,146.052 86.391,146.052 C91.178,146.052 95.06,149.933 95.06,154.721 Z M121.185,180.846 C121.185,185.633 117.303,189.514 112.516,189.514 C107.728,189.514 103.847,185.633 103.847,180.846 C103.847,176.058 107.728,172.177 112.516,172.177 C117.303,172.177 121.185,176.058 121.185,180.846 Z M147.268,206.929 C147.268,211.717 143.387,215.598 138.599,215.598 C133.811,215.598 129.93,211.717 129.93,206.929 C129.93,202.141 133.811,198.26 138.599,198.26 C143.387,198.26 147.268,202.141 147.268,206.929 Z M95.185,206.929 C95.185,211.717 91.303,215.598 86.516,215.598 C81.728,215.598 77.847,211.717 77.847,206.929 C77.847,202.141 81.728,198.26 86.516,198.26 C91.303,198.26 95.185,202.141 95.185,206.929 Z M42.601,206.929 C42.601,211.717 38.72,215.598 33.932,215.598 C29.145,215.598 25.263,211.717 25.263,206.929 C25.263,202.141 29.145,198.26 33.932,198.26 C38.72,198.26 42.601,202.141 42.601,206.929 Z M68.726,180.804 C68.726,185.592 64.845,189.473 60.057,189.473 C55.27,189.473 51.388,185.592 51.388,180.804 C51.388,176.016 55.27,172.135 60.057,172.135 C64.845,172.135 68.726,176.016 68.726,180.804 Z M95.172,50.032 C95.172,55.035 91.116,59.091 86.113,59.091 C81.11,59.091 77.054,55.035 77.054,50.032 C77.054,45.028 81.11,40.972 86.113,40.972 C91.116,40.972 95.172,45.028 95.172,50.032 Z M68.799,76.538 C68.799,81.542 64.743,85.598 59.739,85.598 C54.736,85.598 50.68,81.542 50.68,76.538 C50.68,71.535 54.736,67.479 59.739,67.479 C64.743,67.479 68.799,71.535 68.799,76.538 Z M41.174,49.663 C41.174,53.7 37.901,56.973 33.864,56.973 C29.828,56.973 26.555,53.7 26.555,49.663 C26.555,45.627 29.828,42.354 33.864,42.354 C37.901,42.354 41.174,45.627 41.174,49.663 Z"></path>
    </g>
</svg>